<svg xmlns="http://www.w3.org/2000/svg" viewBox="0 0 1100 640" width="1100" height="640">
  <rect width="1100" height="640" rx="18" fill="#020617"/>
  <rect x="20" y="20" width="1060" height="600" rx="14" fill="#0f172a"/>
  <rect x="20" y="20" width="1060" height="40" fill="#7f1d1d"/>
  <text x="40" y="46" fill="#fecaca" font-family="DejaVu Sans, sans-serif" font-size="14" font-weight="700">MERGE EDITOR  ·  src/auth.ts  ·  1 conflict</text>
  <!-- 3 columns -->
  <rect x="36" y="80" width="330" height="420" rx="10" fill="#0b1220" stroke="#38bdf8"/>
  <text x="201" y="108" text-anchor="middle" fill="#7dd3fc" font-family="DejaVu Sans, sans-serif" font-size="13" font-weight="700">INCOMING  ·  feat/auth</text>
  <rect x="52" y="124" width="298" height="48" rx="8" fill="#082f49"/>
  <text x="68" y="154" fill="#7dd3fc" font-family="DejaVu Sans Mono, monospace" font-size="13">return rotate(token);</text>
  <rect x="385" y="80" width="330" height="420" rx="10" fill="#0b1220" stroke="#fb923c"/>
  <text x="550" y="108" text-anchor="middle" fill="#fdba74" font-family="DejaVu Sans, sans-serif" font-size="13" font-weight="700">CURRENT  ·  HEAD / main</text>
  <rect x="401" y="124" width="298" height="48" rx="8" fill="#431407"/>
  <text x="417" y="154" fill="#fdba74" font-family="DejaVu Sans Mono, monospace" font-size="13">return token;</text>
  <rect x="734" y="80" width="330" height="420" rx="10" fill="#052e16" stroke="#4ade80"/>
  <text x="899" y="108" text-anchor="middle" fill="#86efac" font-family="DejaVu Sans, sans-serif" font-size="13" font-weight="700">RESULT</text>
  <rect x="750" y="124" width="298" height="48" rx="8" fill="#14532d"/>
  <text x="766" y="154" fill="#bbf7d0" font-family="DejaVu Sans Mono, monospace" font-size="13">return rotate(token);</text>
  <text x="750" y="200" fill="#86efac" font-family="DejaVu Sans, sans-serif" font-size="12">Accept Incoming selected</text>
  <!-- buttons -->
  <rect x="36" y="520" width="200" height="40" rx="8" fill="#1e293b" stroke="#38bdf8"/>
  <text x="136" y="545" text-anchor="middle" fill="#7dd3fc" font-family="DejaVu Sans, sans-serif" font-size="12">Accept Incoming</text>
  <rect x="252" y="520" width="200" height="40" rx="8" fill="#1e293b" stroke="#fb923c"/>
  <text x="352" y="545" text-anchor="middle" fill="#fdba74" font-family="DejaVu Sans, sans-serif" font-size="12">Accept Current</text>
  <rect x="468" y="520" width="200" height="40" rx="8" fill="#1e293b" stroke="#a78bfa"/>
  <text x="568" y="545" text-anchor="middle" fill="#c4b5fd" font-family="DejaVu Sans, sans-serif" font-size="12">Accept Both</text>
  <rect x="684" y="520" width="220" height="40" rx="8" fill="#15803d"/>
  <text x="794" y="545" text-anchor="middle" fill="#fff" font-family="DejaVu Sans, sans-serif" font-size="12" font-weight="700">Mark as Resolved + Stage</text>
  <text x="36" y="590" fill="#94a3b8" font-family="DejaVu Sans, sans-serif" font-size="12">Ours = HEAD   ·   Theirs = branch being merged   ·   never Accept Both blindly</text>
</svg>
