<svg xmlns="http://www.w3.org/2000/svg" viewBox="0 0 1100 600" width="1100" height="600">
  <rect width="1100" height="600" rx="18" fill="#020617"/>
  <rect x="20" y="20" width="1060" height="560" rx="14" fill="#0f172a"/>
  <rect x="20" y="20" width="52" height="560" rx="14" fill="#020617"/>
  <rect x="28" y="80" width="36" height="36" rx="8" fill="#ea580c"/>
  <rect x="72" y="20" width="340" height="560" fill="#0b1220"/>
  <text x="88" y="56" fill="#e2e8f0" font-family="DejaVu Sans, sans-serif" font-size="13" font-weight="700">SOURCE CONTROL</text>
  <rect x="88" y="72" width="308" height="36" rx="8" fill="#111827" stroke="#f97316"/>
  <text x="102" y="95" fill="#fdba74" font-family="DejaVu Sans Mono, monospace" font-size="12">feat(auth): add JWT refresh</text>
  <rect x="88" y="118" width="308" height="34" rx="8" fill="#ea580c"/>
  <text x="242" y="140" text-anchor="middle" fill="#fff" font-family="DejaVu Sans, sans-serif" font-size="13" font-weight="700">Commit</text>
  <text x="88" y="176" fill="#94a3b8" font-family="DejaVu Sans, sans-serif" font-size="11">CHANGES  ·  2</text>
  <text x="102" y="204" fill="#fdba74" font-family="DejaVu Sans Mono, monospace" font-size="12">M   src/auth.ts</text>
  <text x="102" y="228" fill="#7dd3fc" font-family="DejaVu Sans Mono, monospace" font-size="12">M   src/api.ts</text>
  <!-- overflow menu -->
  <rect x="300" y="48" width="28" height="24" rx="6" fill="#334155"/>
  <text x="314" y="65" text-anchor="middle" fill="#e2e8f0" font-family="DejaVu Sans, sans-serif" font-size="14">···</text>
  <rect x="430" y="70" width="360" height="360" rx="12" fill="#1e293b" stroke="#fb923c" stroke-width="2"/>
  <text x="450" y="100" fill="#fdba74" font-family="DejaVu Sans, sans-serif" font-size="13" font-weight="700">Source Control menu</text>
  <text x="450" y="136" fill="#e2e8f0" font-family="DejaVu Sans, sans-serif" font-size="13">Fetch</text>
  <text x="450" y="166" fill="#e2e8f0" font-family="DejaVu Sans, sans-serif" font-size="13">Pull</text>
  <text x="450" y="196" fill="#e2e8f0" font-family="DejaVu Sans, sans-serif" font-size="13">Pull (Rebase)</text>
  <text x="450" y="226" fill="#e2e8f0" font-family="DejaVu Sans, sans-serif" font-size="13">Push</text>
  <rect x="442" y="240" width="336" height="1" fill="#334155"/>
  <text x="450" y="268" fill="#86efac" font-family="DejaVu Sans, sans-serif" font-size="13">Stash  →  Stash (Include Untracked)</text>
  <text x="450" y="298" fill="#86efac" font-family="DejaVu Sans, sans-serif" font-size="13">Pop Latest Stash</text>
  <text x="450" y="328" fill="#86efac" font-family="DejaVu Sans, sans-serif" font-size="13">Apply Latest Stash</text>
  <rect x="442" y="342" width="336" height="1" fill="#334155"/>
  <text x="450" y="370" fill="#c4b5fd" font-family="DejaVu Sans, sans-serif" font-size="13">Commit  →  Undo Last Commit</text>
  <text x="450" y="400" fill="#fda4af" font-family="DejaVu Sans, sans-serif" font-size="13">Discard All Changes</text>
  <rect x="820" y="70" width="240" height="160" rx="12" fill="#14532d" stroke="#4ade80"/>
  <text x="940" y="110" text-anchor="middle" fill="#bbf7d0" font-family="DejaVu Sans, sans-serif" font-size="13" font-weight="700">Status bar</text>
  <text x="940" y="142" text-anchor="middle" fill="#fff" font-family="DejaVu Sans Mono, monospace" font-size="12">⎇ feat/auth</text>
  <text x="940" y="170" text-anchor="middle" fill="#fdba74" font-family="DejaVu Sans, sans-serif" font-size="12">↑ 1   ↓ 0</text>
  <text x="940" y="200" text-anchor="middle" fill="#86efac" font-family="DejaVu Sans, sans-serif" font-size="12">↻ Sync Changes</text>
</svg>
